<svg width="16" height="16" viewBox="0 0 16 16" fill="none" xmlns="http://www.w3.org/2000/svg">
<g clip-path="url(#clip0_903_3087)">
<path opacity="0.4" d="M15.2312 9.86558L13.9 9.09683C14.0344 8.37183 14.0344 7.62808 13.9 6.90308L15.2312 6.13433C15.3844 6.04683 15.4531 5.86558 15.4031 5.69683C15.0562 4.58433 14.4656 3.57808 13.6937 2.74058C13.575 2.61246 13.3812 2.58121 13.2312 2.66871L11.9 3.43746C11.3406 2.95621 10.6969 2.58433 9.99999 2.34058V0.806206C9.99999 0.631206 9.87812 0.478081 9.70624 0.440581C8.55937 0.184331 7.38437 0.196831 6.29374 0.440581C6.12187 0.478081 5.99999 0.631206 5.99999 0.806206V2.34371C5.30624 2.59058 4.6625 2.96246 4.1 3.44058L2.77187 2.67183C2.61875 2.58433 2.42812 2.61246 2.30937 2.74371C1.5375 3.57808 0.946872 4.58433 0.599997 5.69996C0.546872 5.86871 0.618747 6.04996 0.771872 6.13746L2.10312 6.90621C1.96875 7.63121 1.96875 8.37496 2.10312 9.09996L0.771872 9.86871C0.618747 9.95621 0.549997 10.1375 0.599997 10.3062C0.946872 11.4187 1.5375 12.425 2.30937 13.2625C2.42812 13.3906 2.62187 13.4218 2.77187 13.3343L4.10312 12.5656C4.6625 13.0468 5.30625 13.4187 6.00312 13.6625V15.2C6.00312 15.375 6.12499 15.5281 6.29687 15.5656C7.44374 15.8218 8.61874 15.8093 9.70937 15.5656C9.88124 15.5281 10.0031 15.375 10.0031 15.2V13.6625C10.6969 13.4156 11.3406 13.0437 11.9031 12.5656L13.2344 13.3343C13.3875 13.4218 13.5781 13.3937 13.6969 13.2625C14.4687 12.4281 15.0594 11.4218 15.4062 10.3062C15.4531 10.1343 15.3844 9.95308 15.2312 9.86558ZM7.99999 10.5C6.62187 10.5 5.49999 9.37808 5.49999 7.99996C5.49999 6.62183 6.62187 5.49996 7.99999 5.49996C9.37812 5.49996 10.5 6.62183 10.5 7.99996C10.5 9.37808 9.37812 10.5 7.99999 10.5Z" fill="#1E1F23"/>
</g>
<defs>
<clipPath id="clip0_903_3087">
<rect width="16" height="16" fill="white"/>
</clipPath>
</defs>
</svg>
